<svg xmlns="http://www.w3.org/2000/svg" width="256" height="256" viewBox="0 0 256 256">
  <defs>
    <linearGradient id="grad1" x1="0%" y1="0%" x2="100%" y2="100%">
      <stop offset="0%" style="stop-color:#8A2BE2;stop-opacity:1" />
      <stop offset="100%" style="stop-color:#DA70D6;stop-opacity:1" />
    </linearGradient>
  </defs>
  <rect width="256" height="256" rx="128" fill="url(#grad1)"/>
  <g fill="#ffffff">
    <circle cx="128" cy="96" r="42" opacity="0.9"/>
    <path d="M128,256 C166,256 200,235 218,204 C218,168 173,152 128,152 C83,152 38,168 38,204 C56,235 90,256 128,256 Z" opacity="0.9"/>
    <path d="M84,84 L92,76 L100,84 L108,76 L116,84" fill="none" stroke="#ffffff" stroke-width="4" stroke-linecap="round"/>
    <path d="M140,84 L148,76 L156,84 L164,76 L172,84" fill="none" stroke="#ffffff" stroke-width="4" stroke-linecap="round"/>
    <path d="M84,48 L172,48" fill="none" stroke="#ffffff" stroke-width="2" stroke-linecap="round"/>
    <path d="M128,48 L128,30" fill="none" stroke="#ffffff" stroke-width="2" stroke-linecap="round"/>
    <circle cx="128" cy="24" r="6" fill="#FFD700"/>
  </g>
</svg>
