<svg xmlns="http://www.w3.org/2000/svg" width="256" height="256" viewBox="0 0 256 256">
  <circle cx="128" cy="128" r="120" fill="#252525" />
  <circle cx="128" cy="128" r="110" fill="#333333" />
  <path d="M128,75 C145,75 160,90 160,110 C160,130 145,145 128,145 C111,145 96,130 96,110 C96,90 111,75 128,75 Z" fill="#444444" />
  <path d="M192,190 C192,160 150,145 128,145 C106,145 64,160 64,190" stroke="#9c4dff" stroke-width="10" fill="none" />
  <path d="M100,120 L85,105 L100,90 M156,120 L171,105 L156,90 M120,135 L128,90 L136,135" stroke="#0099ff" stroke-width="6" stroke-linecap="round" stroke-linejoin="round" />
  <circle cx="128" cy="50" r="8" fill="#0099ff" />
  <circle cx="98" cy="58" r="6" fill="#0099ff" />
  <circle cx="158" cy="58" r="6" fill="#0099ff" />
  <circle cx="168" cy="88" r="6" fill="#0099ff" />
  <circle cx="88" cy="88" r="6" fill="#0099ff" />
</svg>
