<svg xmlns="http://www.w3.org/2000/svg" width="256" height="256" viewBox="0 0 256 256">
  <circle cx="128" cy="128" r="120" fill="#252525" />
  <circle cx="128" cy="128" r="110" fill="#333333" />
  <path d="M128,75 C145,75 160,90 160,110 C160,130 145,145 128,145 C111,145 96,130 96,110 C96,90 111,75 128,75 Z" fill="#444444" />
  <path d="M192,190 C192,160 150,145 128,145 C106,145 64,160 64,190" stroke="#9c4dff" stroke-width="10" fill="none" />
  <path d="M128,50 L128,40 M158,55 L168,45 M98,55 L88,45 M175,85 L185,75 M81,85 L71,75" stroke="#FFD700" stroke-width="6" stroke-linecap="round" />
  <path d="M128,20 L128,30 M178,35 L168,45 M78,35 L88,45 M195,85 L185,75 M61,85 L71,75" stroke="#FFD700" stroke-width="3" stroke-linecap="round" />
  <circle cx="128" cy="25" r="5" fill="#FFD700" />
  <circle cx="173" cy="40" r="5" fill="#FFD700" />
  <circle cx="83" cy="40" r="5" fill="#FFD700" />
  <circle cx="190" cy="80" r="5" fill="#FFD700" />
  <circle cx="66" cy="80" r="5" fill="#FFD700" />
</svg>
