<svg width="200" height="200" viewBox="0 0 200 200" fill="none" xmlns="http://www.w3.org/2000/svg">
  <rect width="200" height="200" rx="20" fill="#222222"/>
  <path d="M100 50C72.3858 50 50 72.3858 50 100C50 127.614 72.3858 150 100 150C127.614 150 150 127.614 150 100C150 72.3858 127.614 50 100 50Z" fill="#46E3B7"/>
  <path d="M100 65C80.67 65 65 80.67 65 100C65 119.33 80.67 135 100 135C119.33 135 135 119.33 135 100C135 80.67 119.33 65 100 65Z" fill="#222222"/>
  <path d="M100 75C86.1929 75 75 86.1929 75 100C75 113.807 86.1929 125 100 125C113.807 125 125 113.807 125 100C125 86.1929 113.807 75 100 75Z" fill="#46E3B7"/>
</svg>
